<?xml version="1.0" encoding="UTF-8"?>
<svg id="Camada_2" data-name="Camada 2" xmlns="http://www.w3.org/2000/svg" viewBox="0 0 497.37 100.61">
  <defs>
    <style>
      .cls-1 {
        fill: #fff;
      }
    </style>
  </defs>
  <g id="Camada_1-2" data-name="Camada 1">
    <g>
      <path class="cls-1" d="M147.92,32.9v27.05h11.7l-1.05,7.75h-20.75V32.9h10.1Z"/>
      <path class="cls-1" d="M183.92,32.9v34.8h-10.1V32.9h10.1Z"/>
      <path class="cls-1" d="M225.77,57.45c0,3.7-1.31,6.33-3.92,7.9-2.62,1.57-6.22,2.35-10.82,2.35h-11.4V32.9h10.2c9.77,0,14.65,3,14.65,9,0,2-.56,3.61-1.67,4.82-1.12,1.22-2.53,2.06-4.22,2.52,4.8,1.13,7.2,3.87,7.2,8.2Zm-16.05-17.65v6.6h1.1c1.3,0,2.21-.28,2.72-.85,.52-.57,.78-1.45,.78-2.65,0-2.07-1.2-3.1-3.6-3.1h-1Zm4.65,19.88c.73-.58,1.1-1.58,1.1-2.98,0-1.3-.32-2.27-.97-2.92-.65-.65-1.67-.98-3.08-.98h-1.7v7.75h1.4c1.43,0,2.52-.29,3.25-.88Z"/>
      <path class="cls-1" d="M251.62,55.25h-1.35v12.45h-10.1V32.9h11.6c4.8,0,8.36,.92,10.67,2.75,2.32,1.83,3.48,4.6,3.48,8.3,0,4.27-1.8,7.38-5.4,9.35l7.6,14.4h-10.85l-5.65-12.45Zm-1.35-6.8h1.7c1.3,0,2.25-.36,2.85-1.08,.6-.72,.9-1.86,.9-3.42,0-1.43-.34-2.48-1.03-3.15-.68-.67-1.69-1-3.02-1h-1.4v8.65Z"/>
      <path class="cls-1" d="M305.32,36.58c2.53,3.12,3.8,7.67,3.8,13.67s-1.28,10.45-3.83,13.65c-2.55,3.2-6.23,4.8-11.03,4.8s-8.52-1.58-11.08-4.73c-2.55-3.15-3.82-7.73-3.82-13.73s1.27-10.43,3.82-13.6c2.55-3.17,6.24-4.75,11.08-4.75s8.52,1.56,11.05,4.67Zm-13.65,3.55c-.63,.72-1.09,1.88-1.38,3.5-.28,1.62-.42,3.83-.42,6.62s.14,5.11,.42,6.73c.28,1.62,.74,2.78,1.38,3.5,.63,.72,1.5,1.08,2.6,1.08s2.02-.36,2.65-1.08c.63-.72,1.08-1.88,1.35-3.5,.27-1.62,.4-3.86,.4-6.73s-.14-4.97-.42-6.6c-.28-1.63-.75-2.81-1.4-3.53-.65-.72-1.51-1.07-2.58-1.07s-1.97,.36-2.6,1.07Z"/>
      <path class="cls-1" d="M349.87,32.9l-7.55,34.8h-13.2l-8.15-34.8h10.35l4.5,27.7,4-27.7h10.05Z"/>
      <path class="cls-1" d="M378.47,67.7l-1.15-6.85h-7l-1.15,6.85h-10.25l9-34.8h12l8.95,34.8h-10.4Zm-7-13.85h4.65l-2.35-13.9-2.3,13.9Z"/>
      <path class="cls-1" d="M427.42,56.6c0,2.3-.49,4.36-1.48,6.18-.98,1.82-2.47,3.25-4.47,4.3s-4.47,1.58-7.4,1.58c-4.43,0-7.77-1.08-10.02-3.23s-3.38-5.09-3.38-8.83v-23.7h10.1v23.4c0,1.8,.25,3.11,.75,3.92,.5,.82,1.35,1.23,2.55,1.23s2-.41,2.5-1.23c.5-.82,.75-2.12,.75-3.92v-23.4h10.1v23.7Z"/>
      <path class="cls-1" d="M452.67,32.9v27.05h11.7l-1.05,7.75h-20.75V32.9h10.1Z"/>
      <path class="cls-1" d="M497.37,32.9l-1,7.5h-6.85v27.3h-10.1v-27.3h-7.4v-7.5h25.35Z"/>
    </g>
    <g>
      <path class="cls-1" d="M76.19,30.33c-17.77-.58-23.1,4.53-24.22,5.92v34.07h.9c4.14-2.97,18.06-5.56,23.31-6.47V30.33Z"/>
      <path class="cls-1" d="M50.3,0C22.52,0,0,22.52,0,50.3s22.52,50.3,50.3,50.3,50.3-22.52,50.3-50.3S78.09,0,50.3,0Zm34.98,72c0,.91-.75,1.67-1.67,1.67H50.3s-.08,0-.11-.01h-2.94s-.08,.01-.11,.01H16.99c-.93,0-1.67-.76-1.67-1.67V35.74c0-.91,.75-1.67,1.67-1.67s1.67,.76,1.67,1.67v34.59h20.01c-4.08-1.11-9.58-2.29-15.84-3.36l-.19-.02s-.06-.01-.08-.02c-.08-.01-.14-.02-.22-.03-.75-.19-1.27-.86-1.27-1.63V28.72c0-.89,.7-1.63,1.58-1.67,3.13-.16,6.17-.14,9.03,.02,2.17,.13,4.3,.39,6.36,.76,.02,.01,.04,.01,.07,.02,5.36,1,8.71,2.65,10.75,4.11,.58,.41,1.06,.81,1.44,1.18,2.8-2.65,10.08-6.96,27.64-6.09,.89,.04,1.59,.78,1.59,1.67v36.55c0,.83-.59,1.52-1.4,1.65-4.89,.79-11.25,2.07-16.14,3.4h19.96V35.74c0-.91,.75-1.67,1.67-1.67s1.67,.76,1.67,1.67v36.26Z"/>
    </g>
  </g>
</svg>