<svg xmlns="http://www.w3.org/2000/svg" viewBox="0 0 2560.81 2879.2">
  <title>Ativo 1</title>
  <g id="Camada_2" data-name="Camada 2">
    <g id="Слой_1" data-name="Слой 1">
      <g id="LEGS">
        <g id="LEFT_LEG" data-name="LEFT LEG">
          <path d="M1485.91,2229.9,1469,2276l-78.1,212.6a186.09,186.09,0,0,1-107.8,34c-4.9,0-10.8-1.2-15.8-1.5-43.4-3-85-22-113.8-46.2l23.3-256.4,1.7-18.6C1304.41,2248.7,1451.21,2240.5,1485.91,2229.9Z" style="fill: #a0505a"/>
          <path d="M1485.91,2229.9l-33.1,90c-101,13.7-249-68.9-275.9-101.4l1.7-18.6C1304.41,2248.7,1451.21,2240.5,1485.91,2229.9Z" style="fill: #73325a"/>
          <g>
            <path d="M1392.51,2488.3l-23.9,250.3c-4.3,66-54.9,116.5-114.9,116.5-2.7,0-5.4-.1-8.2-.3-63.6-4.8-111.5-64.7-107-133.7l14.5-221.2,1.5-23.7a178.54,178.54,0,0,0,44.2,30.3,190.86,190.86,0,0,0,68.5,18.4c5,.4,9.9.6,14.8.6a186.7,186.7,0,0,0,41.3-4.6l1.3-.3a173,173,0,0,0,66.1-31A8.32,8.32,0,0,0,1392.51,2488.3Z" style="fill: #fff;stroke: #ffcf2d;stroke-miterlimit: 10;stroke-width: 5px"/>
            <path d="M1369.61,2503.5l-16.9,200.3c-3.6,55.8-46.4,98.5-97.2,98.5q-3.45,0-6.9-.3c-53.7-4.1-94.3-54.7-90.5-113.1l13.3-199.3" style="fill: none;stroke: #ffcf2d;stroke-miterlimit: 10;stroke-width: 5px"/>
            <path d="M1324.41,2518.4c-13.2,2.7-28.1,3.2-42.3,3.2-4.9,0-9.8-.2-14.8-.5a202.23,202.23,0,0,1-68.5-16.9l-6.6-32.4a21,21,0,0,1,20.8-27.2l96,2.8a21.05,21.05,0,0,1,20.4,23Z" style="fill: #ffcf2d"/>
            <path d="M1323.41,2517.4l-12.1,152.1c-2.1,29.5-30.1,51.3-56.5,46.5l-2.1-.2c-37.6-6.9-66.4-46.1-61.5-88.1l7.6-123.6a202.82,202.82,0,0,0,68.5,16.9c5,.4,9.9.5,14.8.5A199.52,199.52,0,0,0,1323.41,2517.4Z" style="fill: #ffcf2d"/>
            <path d="M1308.71,2682.2l-109.5-25c-11.1-2.5-10.3-18.6,1.1-20l104.7-12.3c12.5-1.5,14.2-19,2.2-22.8l-100.3-31.8c-15.3-4.9-14.1-26.9,1.7-30.1l114.9-19.9s-85.8,7.5-124.6-13.9" style="fill: none;stroke: #fff;stroke-linecap: round;stroke-linejoin: round;stroke-width: 5px"/>
          </g>
          <path d="M1692.51,1667.4l-206.6,562.5c-34.7,10.6-198.4,24.6-358.2-49.5l125.7-581.5A177.11,177.11,0,0,1,1429,1445.1h92.4C1637.51,1445,1722.31,1555,1692.51,1667.4Z" style="fill: #fe5244"/>
          <path d="M1509.91,2169.9c-34.7,10.6-212.4,23.6-372.2-50.5" style="fill: none;stroke: #fff;stroke-linecap: round;stroke-miterlimit: 10;stroke-width: 6px"/>
        </g>
        <g id="RIGHT_LEG" data-name="RIGHT LEG">
          <path d="M1761.41,2241l-20.8,36.9-133.1,232.9c-51.3,20.3-111.8,27.8-166,16.4l-6.8-1.9c-26.8-5.6-54.2-20.6-73.6-37.4l97.1-259.5h.2C1491.91,2239.5,1607.11,2270.7,1761.41,2241Z" style="fill: #a0505a"/>
          <path d="M1761.41,2241l-43.9,77.3c-169,27-264.8-74.7-264.8-74.7l5.6-15.1C1491.91,2239.5,1607.11,2270.7,1761.41,2241Z" style="fill: #73325a"/>
          <path d="M2046.21,1756.6l-230.5,473.6c-195.1,48.8-324.1,9.3-357.4-1.7l241.2-645.1A211.08,211.08,0,0,1,1894,1454.3C2054.61,1454.3,2123.81,1615.9,2046.21,1756.6Z" style="fill: #fe5244"/>
          <path d="M1841.61,2179.2c-195.1,48.8-328.1,9.3-361.4-1.7" style="fill: none;stroke: #fff;stroke-linecap: round;stroke-miterlimit: 10;stroke-width: 6px"/>
          <line x1="1699.51" y1="1583.4" x2="1345.01" y2="2539" style="fill: none;stroke: #fff;stroke-miterlimit: 10;stroke-width: 6px"/>
          <g>
            <path d="M1605.51,2511.5l-7.8,20.5-88.4,231.3c-25.3,79.3-108.5,126.4-181.6,108.3l-4-1.3c-51.3-12.7-83.9-74.5-63.8-129.1l101-246.8,2.1-5.1a153.09,153.09,0,0,0,44,27.6,166.44,166.44,0,0,0,27.8,8.6l6.8,1.9a273.38,273.38,0,0,0,87.5,3.7A304.44,304.44,0,0,0,1605.51,2511.5Z" style="fill: #fff;stroke: #ffcf2d;stroke-miterlimit: 10;stroke-width: 5px"/>
            <path d="M1576.91,2522.2l-77.5,204.8c-21.2,66.4-90.9,105.9-152.1,90.7l-3.3-1.1c-43-10.7-70.3-62.4-53.5-108.2l85.6-207.8" style="fill: none;stroke: #ffcf2d;stroke-linecap: round;stroke-miterlimit: 10;stroke-width: 5px"/>
            <path d="M1547.21,2500.1l-18.2,30.8a273.62,273.62,0,0,1-87.5-3.7l-6.8-1.9a149.69,149.69,0,0,1-27.8-8.6l7.2-50a21.09,21.09,0,0,1,25.2-17.6l94,19.7A21,21,0,0,1,1547.21,2500.1Z" style="fill: #ffcf2d"/>
            <path d="M1529,2530.9l-.5.8-47,124.2c-12.9,40.3-55.1,64.2-92.3,55l-2-.7c-26.1-6.5-42.7-37.9-32.4-65.6l51.9-126,.3-1.9a166.44,166.44,0,0,0,27.8,8.6l6.8,1.9A270.05,270.05,0,0,0,1529,2530.9Z" style="fill: #ffcf2d"/>
            <path d="M1351.81,2666.7l108,11.7c13.3,1.4,18.9-16.6,7.1-22.9l-84.1-44.9c-11.5-6.1-6.7-23.5,6.3-22.9l106.2,4.8c14.3.7,19.5-18.5,6.9-25.2l-95.3-50.8s49.1,23.1,121.8,14.1" style="fill: none;stroke: #fff;stroke-linecap: round;stroke-linejoin: round;stroke-width: 5px"/>
          </g>
        </g>
      </g>
      <g id="TIMER">
        <circle cx="1098.31" cy="737.4" r="737.4" style="fill: #d0f0e4"/>
        <path d="M851.31,1474.9c-308.3-103.2-530.5-394.4-530.5-737.5" style="fill: none;stroke: #ffcf2d;stroke-miterlimit: 10;stroke-width: 7px"/>
        <circle cx="1098.31" cy="737.4" r="476.3" style="fill: none;stroke: #fff;stroke-linecap: round;stroke-miterlimit: 10;stroke-width: 10px;stroke-dasharray: 30.02630043029785,35.03070068359375"/>
        <g>
          <line x1="1098.31" y1="261.2" x2="1098.31" y2="340.5" style="fill: none;stroke: #fff;stroke-linecap: round;stroke-miterlimit: 10;stroke-width: 15px"/>
          <line x1="1098.31" y1="1134.3" x2="1098.31" y2="1213.7" style="fill: none;stroke: #fff;stroke-linecap: round;stroke-miterlimit: 10;stroke-width: 15px"/>
        </g>
        <g>
          <line x1="761.51" y1="400.6" x2="817.61" y2="456.8" style="fill: none;stroke: #fff;stroke-linecap: round;stroke-miterlimit: 10;stroke-width: 15px"/>
          <line x1="1378.91" y1="1018.1" x2="1435.01" y2="1074.2" style="fill: none;stroke: #fff;stroke-linecap: round;stroke-miterlimit: 10;stroke-width: 15px"/>
        </g>
        <g>
          <line x1="622.01" y1="737.4" x2="701.41" y2="737.4" style="fill: none;stroke: #fff;stroke-linecap: round;stroke-miterlimit: 10;stroke-width: 15px"/>
          <line x1="1495.21" y1="737.4" x2="1574.51" y2="737.4" style="fill: none;stroke: #fff;stroke-linecap: round;stroke-miterlimit: 10;stroke-width: 15px"/>
        </g>
        <g>
          <line x1="761.51" y1="1074.2" x2="817.61" y2="1018.1" style="fill: none;stroke: #fff;stroke-linecap: round;stroke-miterlimit: 10;stroke-width: 15px"/>
          <line x1="1378.91" y1="456.8" x2="1435.01" y2="400.6" style="fill: none;stroke: #fff;stroke-linecap: round;stroke-miterlimit: 10;stroke-width: 15px"/>
        </g>
        <path d="M1098.31,1243.7A505.88,505.88,0,0,1,592,737.4c0-140.3,54.4-269.1,152.3-358l40.3,44.4c-41.7,37.9-72.4,79.5-96.2,135.3a458.49,458.49,0,0,0-36.5,178.2A446.56,446.56,0,0,0,1272,1148.5,447.73,447.73,0,0,0,1509.61,911a442.68,442.68,0,0,0,35.1-173.7,430,430,0,0,0-36.3-173.4A448.5,448.5,0,0,0,1409.8,422a461.9,461.9,0,0,0-145.1-95.9c-55.9-23.3-105.9-33.1-166.2-33.1V233c68.3,0,126.11,11.4,189.3,37.7A520.47,520.47,0,0,1,1451.7,379a508.61,508.61,0,0,1,111.7,160.8,490.13,490.13,0,0,1,41.4,197.4,506.48,506.48,0,0,1-506.49,506.5Z" style="fill: #d0f0e4;stroke: #fff;stroke-linecap: round;stroke-linejoin: round;stroke-width: 15px"/>
        <line x1="848.71" y1="483.1" x2="1163.01" y2="805.5" style="fill: none;stroke: #fe5244;stroke-linecap: round;stroke-miterlimit: 10;stroke-width: 7px"/>
        <circle cx="1101.71" cy="740.7" r="24.9" style="fill: #d0f0e4;stroke: #fff;stroke-linecap: round;stroke-miterlimit: 10;stroke-width: 15px"/>
        <path d="M1237.51,210.9l4.5-32.1a24.49,24.49,0,0,1,31.4-19.8l31.4,9.5a24.58,24.58,0,0,1,15.1,34l-15.2,30.6" style="fill: none;stroke: #fff;stroke-linecap: round;stroke-miterlimit: 10;stroke-width: 15px"/>
      </g>
      <g id="TABLE">
        <polyline points="1023.21 2875.3 1023.21 1586.8 2189.51 1586.8 2189.51 2875.3" style="fill: none;stroke: #66b0f0;stroke-miterlimit: 10;stroke-width: 6px"/>
        <path d="M2230.81,1629.9H981.91a51.13,51.13,0,0,1-51.1-51.1V1384.1a51.13,51.13,0,0,1,51.1-51.1h1248.9a51.13,51.13,0,0,1,51.1,51.1v194.7A51.13,51.13,0,0,1,2230.81,1629.9Z" style="fill: #fff;stroke: #66b0f0;stroke-miterlimit: 10;stroke-width: 6px"/>
        <path d="M2233.81,1594.9H978.91a51.13,51.13,0,0,1-51.1-51.1V1349.1a51.13,51.13,0,0,1,51.1-51.1h1254.9a51.13,51.13,0,0,1,51.1,51.1v194.7A51.13,51.13,0,0,1,2233.81,1594.9Z" style="fill: #66b0f0"/>
      </g>
      <g id="BACKPACK">
        <path d="M2226,2374.4V2221.8a94.23,94.23,0,0,1,94.2-94.2h0a94.23,94.23,0,0,1,94.2,94.2v152.6" style="fill: none;stroke: #ffcf2d;stroke-miterlimit: 10;stroke-width: 6px"/>
        <path d="M2132.91,2876.2h350.9a74.13,74.13,0,0,0,74.1-74.1V2313.3a74.13,74.13,0,0,0-74.1-74.1h-350.9a74.13,74.13,0,0,0-74.1,74.1v488.8A74.07,74.07,0,0,0,2132.91,2876.2Z" style="fill: #3fb1b5"/>
        <path d="M2557.81,2352.7a84.84,84.84,0,0,0-84.8-84.8h-273.4a84.84,84.84,0,0,0-84.8,84.8v337.8" style="fill: none;stroke: #fff;stroke-miterlimit: 10;stroke-width: 6px"/>
        <path d="M2484.91,2876.2h-239.3a72.85,72.85,0,0,1-72.9-72.9V2368a72.85,72.85,0,0,1,72.9-72.9h239.3a72.85,72.85,0,0,1,72.9,72.9v435.3A72.85,72.85,0,0,1,2484.91,2876.2Z" style="fill: #fff;stroke: #ffcf2d;stroke-miterlimit: 10;stroke-width: 6px"/>
        <path d="M2278.71,2408.7V2256.1a94.23,94.23,0,0,1,94.2-94.2h0a94.23,94.23,0,0,1,94.2,94.2v152.6" style="fill: none;stroke: #ffcf2d;stroke-miterlimit: 10;stroke-width: 6px"/>
        <path d="M2484.11,2818.9h-235.4a34.61,34.61,0,0,1-34.6-34.6V2604.4a34.61,34.61,0,0,1,34.6-34.6h235.4a34.61,34.61,0,0,1,34.6,34.6v179.9A34.48,34.48,0,0,1,2484.11,2818.9Z" style="fill: #ffcf2d"/>
        <line x1="2129.81" y1="2690.5" x2="2100.21" y2="2690.5" style="fill: none;stroke: #ffcf2d;stroke-miterlimit: 10;stroke-width: 6px"/>
        <path d="M2063.41,2377.6c0,145.8-159.4,362.1-104.5,431.4,52.4,66.1,104.5-.1,104.5-.1Z" style="fill: #fff;stroke: #3fb1b5;stroke-miterlimit: 10;stroke-width: 6px"/>
        <line x1="2232.91" y1="2636.6" x2="2497.41" y2="2636.6" style="fill: none;stroke: #fff;stroke-linecap: round;stroke-miterlimit: 10;stroke-width: 5px"/>
        <rect x="2259.71" y="2405.7" width="38" height="18.2" style="fill: none;stroke: #ffcf2d;stroke-miterlimit: 10;stroke-width: 6px"/>
        <rect x="2447.41" y="2405.7" width="38" height="18.2" style="fill: none;stroke: #ffcf2d;stroke-miterlimit: 10;stroke-width: 6px"/>
        <g>
          <line x1="2232.91" y1="2648.8" x2="2232.91" y2="2636.6" style="fill: none;stroke: #fff;stroke-linecap: round;stroke-miterlimit: 10;stroke-width: 5px"/>
          <line x1="2256.91" y1="2648.8" x2="2256.91" y2="2636.6" style="fill: none;stroke: #fff;stroke-linecap: round;stroke-miterlimit: 10;stroke-width: 5px"/>
          <line x1="2281.01" y1="2648.8" x2="2281.01" y2="2636.6" style="fill: none;stroke: #fff;stroke-linecap: round;stroke-miterlimit: 10;stroke-width: 5px"/>
          <line x1="2305.01" y1="2648.8" x2="2305.01" y2="2636.6" style="fill: none;stroke: #fff;stroke-linecap: round;stroke-miterlimit: 10;stroke-width: 5px"/>
          <line x1="2329.11" y1="2648.8" x2="2329.11" y2="2636.6" style="fill: none;stroke: #fff;stroke-linecap: round;stroke-miterlimit: 10;stroke-width: 5px"/>
          <line x1="2353.11" y1="2648.8" x2="2353.11" y2="2636.6" style="fill: none;stroke: #fff;stroke-linecap: round;stroke-miterlimit: 10;stroke-width: 5px"/>
          <line x1="2378.31" y1="2648.8" x2="2378.31" y2="2636.6" style="fill: none;stroke: #fff;stroke-linecap: round;stroke-miterlimit: 10;stroke-width: 5px"/>
          <line x1="2402.41" y1="2648.8" x2="2402.41" y2="2636.6" style="fill: none;stroke: #fff;stroke-linecap: round;stroke-miterlimit: 10;stroke-width: 5px"/>
          <line x1="2425.31" y1="2648.8" x2="2425.31" y2="2636.6" style="fill: none;stroke: #fff;stroke-linecap: round;stroke-miterlimit: 10;stroke-width: 5px"/>
          <line x1="2449.31" y1="2648.8" x2="2449.31" y2="2636.6" style="fill: none;stroke: #fff;stroke-linecap: round;stroke-miterlimit: 10;stroke-width: 5px"/>
          <line x1="2473.41" y1="2648.8" x2="2473.41" y2="2636.6" style="fill: none;stroke: #fff;stroke-linecap: round;stroke-miterlimit: 10;stroke-width: 5px"/>
          <line x1="2497.41" y1="2648.8" x2="2497.41" y2="2636.6" style="fill: none;stroke: #fff;stroke-linecap: round;stroke-miterlimit: 10;stroke-width: 5px"/>
        </g>
        <path d="M2260.81,2690.5h0a10.71,10.71,0,0,1-10.6-12.1l5.3-41.9h10.6l5.3,41.9A10.65,10.65,0,0,1,2260.81,2690.5Z" style="fill: #fff;stroke: #3fb1b5;stroke-miterlimit: 10;stroke-width: 6px"/>
      </g>
      <g id="CHARACTER">
        <g id="TEST">
          <rect x="1419.81" y="1297.9" width="447.5" height="236.7" style="fill: #fff"/>
          <g>
            <g>
              <circle cx="1814.91" cy="1474.8" r="9.3" style="fill: #fe5244;stroke: #fe5244;stroke-miterlimit: 10;stroke-width: 5px"/>
              <circle cx="1780.51" cy="1474.8" r="9.3" style="fill: #fff;stroke: #fe5244;stroke-miterlimit: 10;stroke-width: 5px"/>
              <circle cx="1746.21" cy="1474.8" r="9.3" style="fill: #fff;stroke: #fe5244;stroke-miterlimit: 10;stroke-width: 5px"/>
            </g>
            <g>
              <circle cx="1814.91" cy="1440.1" r="9.3" style="fill: #fe5244;stroke: #fe5244;stroke-miterlimit: 10;stroke-width: 5px"/>
              <circle cx="1780.51" cy="1440.1" r="9.3" style="fill: #fff;stroke: #fe5244;stroke-miterlimit: 10;stroke-width: 5px"/>
              <circle cx="1746.21" cy="1440.1" r="9.3" style="fill: #fff;stroke: #fe5244;stroke-miterlimit: 10;stroke-width: 5px"/>
            </g>
            <g>
              <circle cx="1814.91" cy="1370.9" r="9.3" style="fill: #fff;stroke: #fe5244;stroke-miterlimit: 10;stroke-width: 5px"/>
              <circle cx="1780.51" cy="1370.9" r="9.3" style="fill: #fe5244;stroke: #fe5244;stroke-miterlimit: 10;stroke-width: 5px"/>
              <circle cx="1746.21" cy="1370.9" r="9.3" style="fill: #fff;stroke: #fe5244;stroke-miterlimit: 10;stroke-width: 5px"/>
            </g>
            <g>
              <circle cx="1814.91" cy="1405.5" r="9.3" style="fill: #fff;stroke: #fe5244;stroke-miterlimit: 10;stroke-width: 5px"/>
              <circle cx="1780.51" cy="1405.5" r="9.3" style="fill: #fff;stroke: #fe5244;stroke-miterlimit: 10;stroke-width: 5px"/>
              <circle cx="1746.21" cy="1405.5" r="9.3" style="fill: #fe5244;stroke: #fe5244;stroke-miterlimit: 10;stroke-width: 5px"/>
            </g>
          </g>
          <g>
            <g>
              <circle cx="1543.91" cy="1405.5" r="9.3" style="fill: #fe5244;stroke: #fe5244;stroke-miterlimit: 10;stroke-width: 5px"/>
              <circle cx="1509.51" cy="1405.5" r="9.3" style="fill: #fff;stroke: #fe5244;stroke-miterlimit: 10;stroke-width: 5px"/>
            </g>
            <circle cx="1475.21" cy="1336.3" r="9.3" style="fill: #fff;stroke: #fe5244;stroke-miterlimit: 10;stroke-width: 5px"/>
            <g>
              <circle cx="1543.91" cy="1370.9" r="9.3" style="fill: #fff;stroke: #fe5244;stroke-miterlimit: 10;stroke-width: 5px"/>
              <circle cx="1509.51" cy="1370.9" r="9.3" style="fill: #fff;stroke: #fe5244;stroke-miterlimit: 10;stroke-width: 5px"/>
              <circle cx="1475.21" cy="1370.9" r="9.3" style="fill: #fe5244;stroke: #fe5244;stroke-miterlimit: 10;stroke-width: 5px"/>
            </g>
          </g>
          <g>
            <g>
              <circle cx="1673.91" cy="1440.1" r="9.3" style="fill: #fff;stroke: #fe5244;stroke-miterlimit: 10;stroke-width: 5px"/>
              <circle cx="1639.51" cy="1440.1" r="9.3" style="fill: #fff;stroke: #fe5244;stroke-miterlimit: 10;stroke-width: 5px"/>
              <circle cx="1605.21" cy="1440.1" r="9.3" style="fill: #fe5244;stroke: #fe5244;stroke-miterlimit: 10;stroke-width: 5px"/>
            </g>
            <g>
              <circle cx="1673.91" cy="1370.9" r="9.3" style="fill: #fe5244;stroke: #fe5244;stroke-miterlimit: 10;stroke-width: 5px"/>
              <circle cx="1639.51" cy="1370.9" r="9.3" style="fill: #fff;stroke: #fe5244;stroke-miterlimit: 10;stroke-width: 5px"/>
              <circle cx="1605.21" cy="1370.9" r="9.3" style="fill: #fff;stroke: #fe5244;stroke-miterlimit: 10;stroke-width: 5px"/>
            </g>
            <g>
              <circle cx="1673.91" cy="1405.5" r="9.3" style="fill: #fff;stroke: #fe5244;stroke-miterlimit: 10;stroke-width: 5px"/>
              <circle cx="1639.51" cy="1405.5" r="9.3" style="fill: #fe5244;stroke: #fe5244;stroke-miterlimit: 10;stroke-width: 5px"/>
              <circle cx="1605.21" cy="1405.5" r="9.3" style="fill: #fff;stroke: #fe5244;stroke-miterlimit: 10;stroke-width: 5px"/>
            </g>
          </g>
        </g>
        <g id="BLOUSE">
          <path d="M2168.91,1351.7h-461.5l.4-53.8h-278l-80.9-237-86.6,159.5,244.5,208.6-116.9,158.4-288.8-185.1a184.49,184.49,0,0,1-83.8-154.6h0a183.67,183.67,0,0,1,23.1-89.3l134.8-243.8a321.1,321.1,0,0,1,281-165.7h432.9a221.56,221.56,0,0,1,181,93.8L2280,1134.9C2345.31,1225.4,2280.51,1351.7,2168.91,1351.7Z" style="fill: #fff;stroke: #fe5244;stroke-miterlimit: 10;stroke-width: 6px"/>
          <path d="M1484.71,1532.8c-34.2,46-76.3,72.4-94.2,59.1s-4.7-61.3,29.4-107.3,72.3-70.4,90.2-57.1S1518.81,1486.9,1484.71,1532.8Z" style="fill: #fe5244"/>
          <polygon points="1493.51 749.3 1632.01 941.2 1759.81 749.3 1493.51 749.3" style="fill: none;stroke: #fe5244;stroke-miterlimit: 10;stroke-width: 6px"/>
          <circle cx="1633.51" cy="996.6" r="14.5" style="fill: none;stroke: #fe5244;stroke-miterlimit: 10;stroke-width: 6px"/>
          <circle cx="1633.51" cy="1088.6" r="14.5" style="fill: none;stroke: #fe5244;stroke-miterlimit: 10;stroke-width: 6px"/>
          <polyline points="1923.21 1048.7 1989.31 1151.2 1711.31 1151.2 1711.31 1355.2" style="fill: none;stroke: #fe5244;stroke-miterlimit: 10;stroke-width: 6px"/>
          <line x1="1989.31" y1="1151.2" x2="2062.21" y2="1151.2" style="fill: none;stroke: #fe5244;stroke-miterlimit: 10;stroke-width: 6px"/>
          <ellipse cx="1711.31" cy="1251.5" rx="40.4" ry="103.7" style="fill: #fe5244"/>
          <path d="M1751.31,1151.5c22.3,0,40.4,44.8,40.4,100s-18.1,100-40.4,100" style="fill: none;stroke: #fe5244;stroke-miterlimit: 10;stroke-width: 6px"/>
          <path d="M1359.41,1568c-17.9-13.3-4.7-61.3,29.4-107.3s70.3-70.4,88.2-57.1" style="fill: none;stroke: #fe5244;stroke-miterlimit: 10;stroke-width: 6px"/>
        </g>
        <g id="HAIR">
          <path d="M1494.51,666.4c.7-98.6,66.2-125.6,173.8-117,116,9.3,68.5,168.9,132.9,174.2,27,2.2,57.8-28.4,98.8-53.6a210.89,210.89,0,0,1,118.4-36.1c117.1,0,212.1,95,212.1,212.1,0,53.9-25.1,106-58.2,143.4,0,0-125.1-175.7-173.6-192.2-95.4-32.4-125.7,51.4-191.9,64.4a90.36,90.36,0,0,1-28.2,1c-94.2-10.8-76.2-166.1-76.2-166.1-24.4-10-29.7-35.3-30.6-50.6a105.89,105.89,0,0,0,.2-12.3,78.18,78.18,0,0,0-.2,12.3c-2,28.8-19.6,97.7-117.7,73v33.5c0,202.9,3.3,242.3-37.8,293.3-6.1,7.6-46.9,68.9,26.2,102,94.2,42.6,27.7,154.7,27.7,154.7h-199.3s-118.3-21-128.6-128.4c-14.7-153.5,177.8-194.6,202.9-199.3-48.8-7.5-96.5-55.6-96.5-113.9,0-51.7,39.7-95.4,80.5-109.8.1,0,.1,0,.2-.1l3.6-1.2c31.9-11,55.4-35.2,60.6-64.5Z" style="fill: #ffcf2d"/>
          <path d="M1672.31,667.5h0a2.54,2.54,0,0,1-2.5-2.5l.8-51.1a2.48,2.48,0,0,1,2.5-2.5h0a2.54,2.54,0,0,1,2.5,2.5l-.8,51.1A2.61,2.61,0,0,1,1672.31,667.5Z" style="fill: #a0505a"/>
          <path d="M1558.51,725.7a2.66,2.66,0,0,1-1.2-.3c-24.2-12.7-29.3-25.7-29.6-26.2a2.48,2.48,0,0,1,1.5-3.2,2.52,2.52,0,0,1,3.2,1.4c.1.2,5,11.9,27.2,23.6a2.6,2.6,0,0,1,1.1,3.4A2.48,2.48,0,0,1,1558.51,725.7Z" style="fill: #a0505a"/>
          <circle cx="1894.41" cy="608.8" r="30" style="fill: #ffcf2d"/>
          <circle cx="1541.31" cy="1089.1" r="24.1" style="fill: #ffcf2d"/>
        </g>
        <g id="ARMS">
          <g>
            <path d="M1693.11,1451.8l-.1,18.2a11.86,11.86,0,0,1-1,4.6l-43.8,97.6a39.74,39.74,0,0,1-36.1,23.1h-93.7a104.71,104.71,0,0,1-64.5-22.3l-3.3-2.6-55.8-43.9h0a239.28,239.28,0,0,1,25.2-41.8c20-27,42.9-47.2,61.9-56.7h134.5c10.7,23.9-24.1,43.1-24.1,43.1h60.8l22-23.9A10.56,10.56,0,0,1,1693.11,1451.8Z" style="fill: #a0505a"/>
            <path d="M1658.51,1542.5a39.74,39.74,0,0,1-36.1,23.1h-78.9" style="fill: none;stroke: #73325a;stroke-linecap: round;stroke-miterlimit: 10;stroke-width: 5px"/>
            <path d="M1672.31,1511.6a39.74,39.74,0,0,1-36.1,23.1h-78.9" style="fill: none;stroke: #73325a;stroke-linecap: round;stroke-miterlimit: 10;stroke-width: 5px"/>
            <path d="M1687.21,1477.2a39.74,39.74,0,0,1-36.1,23.1h-78.9" style="fill: none;stroke: #73325a;stroke-linecap: round;stroke-miterlimit: 10;stroke-width: 5px"/>
            <path d="M1483.71,1530.8a194.81,194.81,0,0,1-33.1,39.6l-.1-.1-55.8-43.9h0a239.28,239.28,0,0,1,25.2-41.8c20-27,42.9-47.2,61.9-56.7h28.9C1513.31,1450.6,1509.51,1488.8,1483.71,1530.8Z" style="fill: #73325a"/>
          </g>
          <g>
            <path d="M1579.61,1222.3s48.6-129.7,67.4-127.1-41.9,117.5-41.9,117.5Z" style="fill: #fe5244"/>
            <g>
              <path d="M1751.71,1251.5c0,55.5-17,100.7-38.3,103.5a14.77,14.77,0,0,1-2.1.1h-198a10.76,10.76,0,0,1-10.8-10.8v-63.2a42.88,42.88,0,0,1,27.7-40.2l82.9-31.4a67.42,67.42,0,0,1,23.5-4.3h110.8A246.28,246.28,0,0,1,1751.71,1251.5Z" style="fill: #a0505a"/>
              <path d="M1589.51,1254.9l-62.6,23.7a32.47,32.47,0,0,0-20.9,30.3" style="fill: none;stroke: #73325a;stroke-linecap: round;stroke-miterlimit: 10;stroke-width: 5px"/>
              <path d="M1589.51,1292.7l-62.6,23.7a32.47,32.47,0,0,0-20.9,30.3" style="fill: none;stroke: #73325a;stroke-linecap: round;stroke-miterlimit: 10;stroke-width: 5px"/>
              <line x1="1586.11" y1="1328" x2="1523.51" y2="1351.7" style="fill: none;stroke: #73325a;stroke-linecap: round;stroke-miterlimit: 10;stroke-width: 5px"/>
              <path d="M1751.71,1251.5c0,55.5-17,100.7-38.3,103.5a14.77,14.77,0,0,1-2.1.1c-22.3,0-40.4-46.4-40.4-103.7,0-15.3,2.3-32.7,4.7-46.3h71.3C1749.41,1218.8,1751.71,1236.2,1751.71,1251.5Z" style="fill: #73325a"/>
            </g>
          </g>
        </g>
        <g id="HEAD">
          <path id="HEAD-2" data-name="HEAD" d="M1735.11,718.8a25.75,25.75,0,0,1-5.3,15.6,25.39,25.39,0,0,1-13.8,9.1l-13.8,3.6v15.4a67.26,67.26,0,0,1-67.3,67.3h-13.3a67.33,67.33,0,0,1-67.3-67v-44c98.1,24.8,115.7-44.2,117.7-73,.8,14.6,5.7,38.2,27.3,49.1l3.8-1A25.78,25.78,0,0,1,1735.11,718.8Z" style="fill: #a0505a"/>
          <g id="FACE">
            <path d="M1651.71,731.2s20.4-2,32.2,8.1" style="fill: none;stroke: #73325a;stroke-linecap: round;stroke-miterlimit: 10;stroke-width: 5px"/>
            <path d="M1572.51,736.9s15-8.1,31.8-.7c10,4.4,16.6,28,16.8,59.2" style="fill: none;stroke: #73325a;stroke-linecap: round;stroke-miterlimit: 10;stroke-width: 5px"/>
            <ellipse cx="1591.71" cy="759.9" rx="3.9" ry="7.5" style="fill: #73325a"/>
            <ellipse cx="1664.31" cy="759.9" rx="3.9" ry="7.5" style="fill: #73325a"/>
            <path d="M1706,728.5a18.41,18.41,0,0,1,14.6-18" style="fill: none;stroke: #73325a;stroke-linecap: round;stroke-miterlimit: 10;stroke-width: 5px"/>
          </g>
        </g>
      </g>
      <g id="PLANT">
        <g>
          <path d="M905.11,2265c11.9,28,8.4,85.6-51.5,84.8-74.3-1-72.4-201.2-72.4-201.2S857.11,2152.1,905.11,2265Z" style="fill: #3fb1b5"/>
          <path d="M213.11,2197.3c-18.6,39.4,6.4,71.1,27.4,60.2,36.7-19.1,52.5-68.2,52.5-68.2S229.81,2162.1,213.11,2197.3Z" style="fill: #3fb1b5"/>
          <path d="M904.11,2265c-39.8-79.7-84.7-117.6-156.6-117.6-121.1,0-198.8,129.6-213.6,297.2-1.8-20.8-23.3-42.1-24.9-63.7-21.6-287,135.7-400.2,253.7-400.2C859.31,1980.6,883.41,2119.4,904.11,2265Z" style="fill: #fff;stroke: #3fb1b5;stroke-miterlimit: 10;stroke-width: 6px"/>
          <path d="M509.11,2448.6c-21.6-287,143-400.2,251.7-400.2,60.3,0,98.1,35.6,127.2,116.6" style="fill: none;stroke: #3fb1b5;stroke-miterlimit: 10;stroke-width: 6px"/>
          <path d="M56,1859.6c-32.3,32-90.7,163.2-18.4,189.2s157-230.8,157-230.8S133.31,1782.9,56,1859.6Z" style="fill: #ffcf2d;stroke: #ffcf2d;stroke-miterlimit: 10;stroke-width: 6px"/>
          <g>
            <path d="M652.11,2455.7l-25.8,139.9a148.06,148.06,0,0,1-291.2,0l-25.8-139.9a46.57,46.57,0,0,1,4.4-19.7c20.7,20.8,88,36,167.7,36,78.6,0,145-14.8,166.8-35A46.71,46.71,0,0,1,652.11,2455.7Z" style="fill: #d0f0e4"/>
            <path d="M635.21,2422.5c0,19.8-68.9,35.8-153.9,35.8s-153.9-16-153.9-35.8a8.69,8.69,0,0,1,1.3-4.6c9.8-17.6,74.4-31.1,152.6-31.1,80.6,0,146.7,14.4,153.3,32.7A8,8,0,0,1,635.21,2422.5Z" style="fill: #66b0f0"/>
          </g>
          <path d="M536.51,2213.8c0,82.8-11.4,161-31.7,229.8h-58.4c-.2-347.7-127-629.4-283.3-629.4-40.6,0-79.2,19-114.1,53.2,102.8-120.3,145.5-153.3,204.2-153.3C393.41,1714.1,536.51,1937.8,536.51,2213.8Z" style="fill: #fff;stroke: #ffcf2d;stroke-miterlimit: 10;stroke-width: 6px"/>
          <path d="M114.41,1794.1c33.4-24.3,54.9-35.6,93.2-35.6,156.4,0,314.7,261,273,685" style="fill: none;stroke: #ffcf2d;stroke-miterlimit: 10;stroke-width: 6px"/>
          <path d="M481,2443.5s8.6-326.5-169.3-327.6c-47.1-.3-91.2,74.4-91.2,74.4s208.3-54.4,218.6,253.2Z" style="fill: #fff;stroke: #3fb1b5;stroke-miterlimit: 10;stroke-width: 6px"/>
          <path d="M459.21,2444.5c2.5-92-20.7-314-200.5-302.1" style="fill: none;stroke: #3fb1b5;stroke-miterlimit: 10;stroke-width: 6px"/>
          <circle cx="219.71" cy="1864.1" r="16.5" style="fill: #fff;stroke: #ffcf2d;stroke-miterlimit: 10;stroke-width: 6px"/>
          <circle cx="608.61" cy="2328.4" r="24.1" style="fill: #fff;stroke: #ffcf2d;stroke-miterlimit: 10;stroke-width: 6px"/>
          <circle cx="568.61" cy="1842.1" r="45.5" style="fill: #d0f0e4"/>
        </g>
        <g>
          <path d="M688.11,2875.3l-40.3-200.7c-3.4-17.1-26.2-21.1-35.2-6.1h0c-55.6,92.5-206.6,93.1-263.1.9l-1-1.7c-9.1-14.8-31.7-10.8-35.1,6.2L273,2875.2" style="fill: none;stroke: #66b0f0;stroke-miterlimit: 10;stroke-width: 6px"/>
          <line x1="480.61" y1="2738.3" x2="480.61" y2="2876.2" style="fill: none;stroke: #66b0f0;stroke-miterlimit: 10;stroke-width: 6px"/>
        </g>
        <line x1="181.51" y1="2875.3" x2="1521.91" y2="2875.3" style="fill: none;stroke: #66b0f0;stroke-miterlimit: 10;stroke-width: 6px"/>
      </g>
    </g>
  </g>
</svg>
